# xmcd CD database file
#
# Track frame offsets:
#	150
#	25824
#	50695
#	66160
#	97095
#	118778
#	140178
#	156193
#	193766
#	219197
#	241133
#	275421
#
# Disc length: 3896 seconds
#
# Revision: 0
# Processed by: cddbd v1.5.1PL2 Copyright (c) Steve Scherf et al.
# Submitted via: CDex 1.50
#
DISCID=b40f360c
DTITLE=Albert Bover - Old Bottle, New Wine
DYEAR=1999
DGENRE=Jazz
TTITLE0=Hi-Fly
TTITLE1=Autumn Leaves
TTITLE2=Old Bottle, New Wine
TTITLE3=Star Crossed Lovers
TTITLE4=Chance
TTITLE5=Ypu Never Give Me Your Money
TTITLE6=Halle Bop
TTITLE7=The Peacocks
TTITLE8=IMprovisazió
TTITLE9=Sail Away
TTITLE10='Round Midnight
TTITLE11=Turn Around
EXTD=YEAR: 1999
EXTT0=
EXTT1=
EXTT2=
EXTT3=
EXTT4=
EXTT5=
EXTT6=
EXTT7=
EXTT8=
EXTT9=
EXTT10=
EXTT11=
PLAYORDER=
